<?xml version="1.0" encoding="UTF-8"?>
<!DOCTYPE svg PUBLIC "-//W3C//DTD SVG 1.1//EN" "http://www.w3.org/Graphics/SVG/1.1/DTD/svg11.dtd">
<svg version="1.1" xmlns="http://www.w3.org/2000/svg" xmlns:xlink="http://www.w3.org/1999/xlink" x="0" y="0" width="148" height="41" viewBox="0, 0, 148, 41">
  <defs>
    <pattern id="Pattern_1" patternUnits="userSpaceOnUse" x="32.079" y="4.974" width="NaN" height="NaN">
      <g transform="translate(-0, -0)"/>
    </pattern>
  </defs>
  <g id="Layer_1">
    <path d="M52.153,10.8 L68.995,10.8 L68.995,4.063 L52.153,4.063 L52.153,10.8 z" fill="#000000"/>
    <path d="M19.311,25.958 L26.048,25.958 L26.048,4.063 L19.311,4.063 L19.311,25.958 z" fill="#000000"/>
    <path d="M30.259,36.063 L36.995,36.063 L36.995,4.063 L30.259,4.063 L30.259,36.063 z" fill="#000000"/>
    <path d="M8.364,36.063 L15.101,36.063 L15.101,4.063 L8.364,4.063 L8.364,36.063 z" fill="#000000"/>
    <path d="M52.153,36.063 L58.89,36.063 L58.89,15.01 L52.153,15.01 L52.153,36.063 z" fill="#000000"/>
    <path d="M41.206,10.8 L47.943,10.8 L47.943,4.063 L41.206,4.063 L41.206,10.8 z" fill="#000000"/>
    <path d="M41.387,36.01 L48.124,36.01 L48.124,14.957 L41.387,14.957 L41.387,36.01 z" fill="#000000"/>
    <path d="M32.079,4.974 L130.255,4.974 L130.255,36.063 L32.079,36.063 z" fill="url(#Pattern_1)"/>
    <g id="Layer_1">
      <path d="M82.236,6.395 C82.458,7.889 82.634,9.389 82.912,10.878 C83.245,12.776 83.776,14.633 84.498,16.419 C85.204,18.161 86.206,19.768 87.458,21.169 C88.754,22.676 90.29,23.959 92.004,24.965 C92.93,25.482 93.817,26.056 94.777,26.511 C96.423,27.242 98.167,27.728 99.954,27.954 C101.163,28.178 102.39,28.293 103.619,28.295 C104.697,28.294 105.773,28.205 106.836,28.028 C104.93,28.93 102.944,29.651 100.903,30.182 C94.294,31.886 88.97,31.125 87.805,30.75 C87.668,30.71 86.56,30.409 85.072,29.989 L84.662,29.886 C84.514,31.706 84.773,33.537 85.418,35.245 C85.13,35.176 84.849,35.083 84.577,34.966 C83.16,34.276 82.037,33.101 81.412,31.653 C80.997,30.656 80.755,29.595 80.696,28.517 C80.697,28.368 80.656,28.222 80.579,28.094 C80.502,27.967 80.391,27.863 80.258,27.795 C78.818,26.962 77.601,25.792 76.713,24.386 C76.293,23.654 75.922,22.894 75.604,22.113 C75.584,22.062 75.573,22.008 75.573,21.953 C75.573,21.899 75.584,21.845 75.604,21.794 C76.404,19.931 77.201,18.061 77.997,16.186 C78.122,15.896 77.963,16.237 79.912,11.714 C80.861,9.509 81.662,7.685 82.236,6.395 z" fill="#C0BEBF"/>
      <path d="M85.003,15.26 C84.748,14.544 84.481,13.919 84.304,13.271 C83.861,11.685 83.401,10.1 83.077,8.492 C82.853,7.334 82.853,6.144 83.077,4.986 C83.122,4.73 83.253,4.599 83.583,4.543 C86.625,3.989 89.735,3.914 92.8,4.321 C96.164,4.718 99.408,5.82 102.318,7.554 C103.846,8.492 105.235,9.64 106.443,10.964 C108.14,12.852 109.478,15.034 110.393,17.402 C110.505,17.674 110.561,17.966 110.558,18.26 C110.376,18.101 110.183,17.953 109.989,17.788 C108.531,16.443 106.848,15.364 105.017,14.601 C102.949,13.663 100.693,13.373 98.448,13.061 C97.01,12.862 95.567,12.697 94.118,12.589 C91.483,12.302 88.825,12.853 86.521,14.163 C85.997,14.503 85.49,14.869 85.003,15.26 z" fill="#B12E2F"/>
      <path d="M91.459,22.323 C98.408,24.721 104.722,23.675 110.62,19.482 C110.461,19.897 110.342,20.249 110.188,20.584 C109.779,21.499 109.347,22.397 108.938,23.306 C108.37,24.568 107.802,25.835 107.233,27.102 C107.176,27.241 107.087,27.364 106.973,27.463 C106.86,27.562 106.725,27.633 106.58,27.67 C105.577,28.001 104.509,28.089 103.466,27.926 C101.664,27.613 99.84,27.358 98.073,26.909 C96.456,26.539 94.927,25.855 93.573,24.897 C92.754,24.279 92.063,23.507 91.538,22.624 C91.502,22.527 91.476,22.426 91.459,22.323 z" fill="#41BCBF"/>
      <path d="M96.431,13.498 C97.141,13.606 97.817,13.691 98.488,13.811 C99.253,13.921 100.011,14.071 100.761,14.259 C103.426,15.021 106.068,15.839 108.324,17.453 C108.978,17.919 109.575,18.459 110.245,19.004 L109.921,19.186 C108.972,19.646 108,20.078 107.08,20.578 C106.407,20.962 105.756,21.383 105.131,21.84 C104.869,22.016 104.761,21.959 104.597,21.726 C103.653,20.408 102.706,19.099 101.755,17.8 C100.783,16.507 99.576,15.408 98.198,14.561 C97.63,14.203 97.05,13.884 96.431,13.498 z" fill="#0F5A6F"/>
    </g>
  </g>
</svg>
