<svg width="157" height="40" viewBox="0 0 157 40" fill="none" xmlns="http://www.w3.org/2000/svg" aria-labelledby="logo--title" role="img">
<title id="logo--title">Teacher Moments</title>
  <path d="M8.144 4.737c.271 1.827.487 3.66.827 5.48a33.56 33.56 0 0 0 1.938 6.772 19.99 19.99 0 0 0 3.618 5.806 22.046 22.046 0 0 0 5.557 4.64c1.132.632 2.216 1.334 3.39 1.89a22.546 22.546 0 0 0 6.327 1.764c1.478.274 2.977.413 4.48.416a24.05 24.05 0 0 0 3.931-.326 41.127 41.127 0 0 1-7.251 2.632c-8.078 2.084-14.586 1.153-16.01.695-.167-.049-1.521-.417-3.34-.93l-.5-.126c-.182 2.225.134 4.462.923 6.55a6.31 6.31 0 0 1-1.028-.34 8.057 8.057 0 0 1-3.869-4.05 11.606 11.606 0 0 1-.875-3.834.986.986 0 0 0-.535-.882 12.57 12.57 0 0 1-4.334-4.167A22.916 22.916 0 0 1 .04 23.948a.507.507 0 0 1 0-.389c.977-2.278 1.952-4.563 2.924-6.855.153-.354-.042.063 2.34-5.466 1.16-2.695 2.14-4.925 2.841-6.501Z" fill="#C0BEBF"></path>
  <path d="M51.638 26.428c1.18-.139 2.348-.222 3.473-.424a16.19 16.19 0 0 0 4.577-1.694 25.358 25.358 0 0 0 4.008-2.452 32.298 32.298 0 0 0 4.334-3.994 15.69 15.69 0 0 0 3.973-8.974c.18-1.868.208-3.757.305-5.64V2.168l.216.201c.076.077.132.146.138.146.084.104 4.168 3.216 5.62 5.036.875 1.111 1.125 2.202 1.493 3.875.285 1.272.882 3.939-.209 6.648-.562 1.389-.84.986-1.5 2.549-.75 1.792-.472 2.52-1.389 5.758a6.251 6.251 0 0 1-1.236 2.597c-.42.49-.929.896-1.5 1.195.262-2.073.325-4.166.187-6.251-.542.257-1.021.5-1.507.694-.695.313-2.577 1.181-4.223 1.744a27.222 27.222 0 0 1-8.474 1.389 26.871 26.871 0 0 1-3.021-.104 21.998 21.998 0 0 1-5.265-1.216Z" fill="#0F5A6F"></path>
  <path d="M11.527 15.572c-.313-.875-.64-1.639-.854-2.43-.542-1.938-1.105-3.876-1.5-5.842a11.259 11.259 0 0 1 0-4.285c.055-.313.215-.473.617-.542a36.27 36.27 0 0 1 11.266-.271A29.464 29.464 0 0 1 32.69 6.154a23.387 23.387 0 0 1 5.043 4.167 25.552 25.552 0 0 1 4.827 7.87c.137.332.206.689.201 1.049-.222-.195-.458-.375-.694-.577a20.746 20.746 0 0 0-6.078-3.896c-2.528-1.146-5.285-1.5-8.029-1.883a84.422 84.422 0 0 0-5.292-.576 15.42 15.42 0 0 0-9.287 1.924c-.64.415-1.259.863-1.854 1.34Z" fill="#B12E2F"></path>
  <path d="M70.301 9.53c-.695-.237-1.299-.494-1.938-.695a11.87 11.87 0 0 0-4.987-.32 39.206 39.206 0 0 0-4.021.8c-1.39.374-2.82.874-4.223 1.326a25.826 25.826 0 0 0-5.39 2.215 21.641 21.641 0 0 0-4.64 3.751c-.13.158-.248.325-.354.5l-.195-.125c.119-.472.216-.951.362-1.389a18.829 18.829 0 0 1 3.146-5.904c1.23-1.5 2.65-2.832 4.223-3.966 2.59-1.986 5.556-3.084 8.578-4.112A31.007 31.007 0 0 1 66.335.375C67.641.181 68.961.132 70.273 0c.34 0 .452.139.556.424a9.876 9.876 0 0 1 .382 4.494c-.174 1.493-.563 2.965-.855 4.445a1.395 1.395 0 0 1-.055.166ZM19.417 24.206c8.495 2.93 16.211 1.653 23.42-3.473-.194.507-.34.938-.527 1.347-.5 1.119-1.028 2.216-1.528 3.327-.695 1.542-1.39 3.091-2.084 4.64a1.188 1.188 0 0 1-.798.695 8.14 8.14 0 0 1-3.807.312c-2.202-.382-4.431-.694-6.591-1.243A15.525 15.525 0 0 1 22 27.352a9.676 9.676 0 0 1-2.487-2.778 2.012 2.012 0 0 1-.097-.368Z" fill="#41BCBF"></path>
  <path d="M44.873 18.663c.91.25 1.785.521 2.681.736 2.478.585 5.029.805 7.57.653A28.974 28.974 0 0 0 65.3 17.691c.34-.146.646-.354.98-.521a.695.695 0 0 1 .277 0v.285a12.594 12.594 0 0 1-1.049 1.479 12.168 12.168 0 0 1-3.07 2.278 36.036 36.036 0 0 1-9.168 3.376c-.97.168-1.954.236-2.938.201a.653.653 0 0 1-.444-.194c-1.64-1.903-3.274-3.811-4.904-5.723a1.083 1.083 0 0 1-.111-.209Z" fill="#B12E2F"></path>
  <path d="M25.495 13.419c.868.132 1.694.236 2.514.382a27.54 27.54 0 0 1 2.778.549c3.258.93 6.487 1.93 9.245 3.903.799.57 1.528 1.23 2.348 1.896l-.396.223c-1.16.562-2.348 1.09-3.473 1.701-.823.469-1.618.983-2.383 1.542-.32.216-.451.146-.653-.139a557.19 557.19 0 0 0-3.472-4.8 15.802 15.802 0 0 0-4.348-3.958c-.695-.438-1.403-.827-2.16-1.3Z" fill="#0F5A6F"></path>
  <path d="m59.848 10.085-1.987 1.32a12.26 12.26 0 0 0-3.153 3.18c-.986 1.39-1.903 2.848-2.834 4.286-.166.271-.32.313-.639.236-1.792-.41-3.59-.778-5.397-1.166l-.694-.146a3.6 3.6 0 0 1 .347-.494 29.09 29.09 0 0 1 5.147-3.68c2.84-1.654 5.938-2.557 9.03-3.536h.18Z" fill="#C0BEBF"></path>
  <path d="M87.276 20.038V8.96h-4.334V7.64h10.071v1.32H88.68v11.113l-1.403-.035ZM96.201 20.191a4.73 4.73 0 0 1-2.493-.646 4.487 4.487 0 0 1-1.66-1.757 5.063 5.063 0 0 1-.59-2.438 5.278 5.278 0 0 1 .562-2.445 4.326 4.326 0 0 1 1.611-1.743 5.084 5.084 0 0 1 4.96 0 4.361 4.361 0 0 1 1.604 1.743c.381.758.574 1.597.563 2.445v.563h-7.856c.07.536.252 1.052.535 1.514.278.452.668.826 1.132 1.083a3.292 3.292 0 0 0 1.653.403 3.007 3.007 0 0 0 1.667-.438 3.056 3.056 0 0 0 1.049-1.11h1.542a4.57 4.57 0 0 1-1.55 2.083 4.403 4.403 0 0 1-2.729.743Zm-3.278-5.556h6.41a3.473 3.473 0 0 0-1.013-2.008 3.008 3.008 0 0 0-2.216-.82 2.945 2.945 0 0 0-2.16.806 3.556 3.556 0 0 0-1.021 1.973v.049ZM105.821 20.191a4.28 4.28 0 0 1-3.973-2.403 5.564 5.564 0 0 1 0-4.862 4.302 4.302 0 0 1 3.973-2.39 4.167 4.167 0 0 1 2 .445 3.83 3.83 0 0 1 1.355 1.223V10.66h1.389v9.377h-1.389v-1.5a3.835 3.835 0 0 1-1.355 1.201 4.164 4.164 0 0 1-2 .452Zm.188-1.278a3.07 3.07 0 0 0 1.771-.486 3.11 3.11 0 0 0 1.097-1.306 4.374 4.374 0 0 0 0-3.55 2.984 2.984 0 0 0-2.868-1.763 3.231 3.231 0 0 0-1.779.486 3.193 3.193 0 0 0-1.146 1.299 4.17 4.17 0 0 0 0 3.549 3.113 3.113 0 0 0 2.925 1.792v-.021ZM116.434 20.191a4.501 4.501 0 0 1-2.438-.646 4.45 4.45 0 0 1-1.604-1.757 5.508 5.508 0 0 1 0-4.862 4.365 4.365 0 0 1 4.042-2.39 4.648 4.648 0 0 1 2.841.862 4.169 4.169 0 0 1 1.59 2.209h-1.514a2.97 2.97 0 0 0-1.021-1.313 2.868 2.868 0 0 0-1.702-.507 3.332 3.332 0 0 0-1.798.486 3.27 3.27 0 0 0-1.181 1.299 4.043 4.043 0 0 0 0 3.55 3.213 3.213 0 0 0 2.979 1.792 2.822 2.822 0 0 0 1.702-.508 2.901 2.901 0 0 0 1.021-1.313h1.514a4.162 4.162 0 0 1-1.583 2.237 4.689 4.689 0 0 1-2.848.861ZM121.984 20.038V6.946h1.389v5.216c.34-.453.759-.84 1.236-1.146a3.408 3.408 0 0 1 1.875-.465 3.794 3.794 0 0 1 1.827.458 3.545 3.545 0 0 1 1.389 1.39 4.3 4.3 0 0 1 .535 2.236v5.459h-1.389v-5.418a2.861 2.861 0 0 0-.736-2.083 2.492 2.492 0 0 0-1.883-.785 2.906 2.906 0 0 0-1.43.354 2.773 2.773 0 0 0-1.403 2.5v5.397l-1.41-.02ZM136.146 20.191a4.712 4.712 0 0 1-2.494-.646 4.486 4.486 0 0 1-1.674-1.757 5.062 5.062 0 0 1-.59-2.438 5.266 5.266 0 0 1 .563-2.445 4.326 4.326 0 0 1 1.611-1.743 5.083 5.083 0 0 1 4.959 0 4.36 4.36 0 0 1 1.605 1.743c.381.758.574 1.597.562 2.445v.563h-7.841c.069.536.251 1.052.534 1.514.278.452.668.826 1.132 1.083a3.282 3.282 0 0 0 1.654.403 3.01 3.01 0 0 0 1.667-.438 3.055 3.055 0 0 0 1.048-1.11h1.542a4.615 4.615 0 0 1-1.549 2.083 4.4 4.4 0 0 1-2.729.743Zm-3.286-5.556h6.377a3.473 3.473 0 0 0-1.008-2.042 3.002 3.002 0 0 0-2.181-.785 2.946 2.946 0 0 0-2.16.805 3.61 3.61 0 0 0-1.028 1.973v.049ZM141.806 20.038v-9.376h1.39v2.306c.077-.224.174-.44.291-.646.163-.303.375-.578.625-.813a3.434 3.434 0 0 1 2.536-.993h.09v1.389h-.174a2.968 2.968 0 0 0-1.813.57 3.627 3.627 0 0 0-1.16 1.486c-.27.61-.408 1.27-.402 1.938v4.125l-1.383.014ZM84.2 33.54V21.128h1.631l4.473 5.89 4.37-5.89h1.631V33.54h-1.389V23.268l-4.612 5.904-4.667-5.904V33.54h-1.438ZM102.466 33.693a4.646 4.646 0 0 1-2.48-.646 4.368 4.368 0 0 1-1.61-1.757 5.556 5.556 0 0 1 0-4.862 4.376 4.376 0 0 1 1.61-1.743 5.1 5.1 0 0 1 4.967 0 4.392 4.392 0 0 1 1.597 1.743 5.55 5.55 0 0 1 0 4.862 4.377 4.377 0 0 1-1.597 1.757 4.636 4.636 0 0 1-2.487.646Zm0-1.278a3.07 3.07 0 0 0 1.771-.486 3.105 3.105 0 0 0 1.098-1.306 4.39 4.39 0 0 0 0-3.55 3.28 3.28 0 0 0-2.023-1.653 3.273 3.273 0 0 0-2.589.355 3.093 3.093 0 0 0-1.125 1.313 4.383 4.383 0 0 0 0 3.55 2.994 2.994 0 0 0 2.868 1.791v-.014ZM108.363 33.54v-9.376h1.389v1.424a3.48 3.48 0 0 1 1.014-1.063 3.022 3.022 0 0 1 1.834-.507 3.17 3.17 0 0 1 1.736.493c.539.337.972.818 1.251 1.39a5.05 5.05 0 0 1 .59-.765 3.53 3.53 0 0 1 1.056-.792 3.472 3.472 0 0 1 1.576-.333 3.223 3.223 0 0 1 1.688.465c.538.328.981.79 1.285 1.34.35.638.523 1.358.5 2.085v5.66h-1.389v-5.626a2.714 2.714 0 0 0-.694-1.903 2.174 2.174 0 0 0-1.66-.695 2.484 2.484 0 0 0-1.833.748 2.48 2.48 0 0 0-.703 1.85v5.605h-1.389v-5.626a2.736 2.736 0 0 0-.66-1.903 2.171 2.171 0 0 0-1.66-.694 2.564 2.564 0 0 0-1.785.694 2.543 2.543 0 0 0-.757 1.924v5.605h-1.389ZM128.172 33.693a4.74 4.74 0 0 1-2.493-.646 4.535 4.535 0 0 1-1.66-1.757 5.148 5.148 0 0 1-.591-2.438 5.272 5.272 0 0 1 .563-2.459 4.348 4.348 0 0 1 1.618-1.743 5.087 5.087 0 0 1 4.959 0 4.362 4.362 0 0 1 1.605 1.743c.381.758.574 1.597.562 2.445v.563h-7.862c.072.536.254 1.052.535 1.514.28.453.672.826 1.139 1.084a3.248 3.248 0 0 0 1.646.402 2.98 2.98 0 0 0 1.702-.451 3.072 3.072 0 0 0 1.055-1.14h1.535a4.57 4.57 0 0 1-1.549 2.085 4.375 4.375 0 0 1-2.764.798Zm-3.278-5.556h6.39a3.474 3.474 0 0 0-1.014-2.008 3.328 3.328 0 0 0-4.341 0 3.643 3.643 0 0 0-1.035 1.973v.035ZM133.84 33.54v-9.376h1.389v1.465a4.68 4.68 0 0 1 1.243-1.146 3.412 3.412 0 0 1 1.876-.465 3.812 3.812 0 0 1 1.826.458 3.595 3.595 0 0 1 1.389 1.39c.376.686.561 1.46.535 2.243v5.452h-1.389v-5.417a2.897 2.897 0 0 0-.729-2.084 2.496 2.496 0 0 0-1.896-.778 2.776 2.776 0 0 0-1.424.361 2.702 2.702 0 0 0-1.021 1c-.264.453-.398.97-.389 1.494v5.396l-1.41.007ZM144.619 33.54V25.4h-1.91v-1.236h1.91v-3.327h1.39v3.355h2.153v1.236h-2.153v8.113h-1.39ZM152.517 33.693a5 5 0 0 1-2.181-.43 3.32 3.32 0 0 1-1.389-1.14 3.104 3.104 0 0 1-.528-1.527h1.465c.04.323.151.634.327.91.204.307.494.549.833.694.463.198.963.29 1.466.271.232-.005.464-.023.694-.056.272-.034.539-.104.792-.208.251-.095.475-.25.653-.451.179-.214.271-.486.257-.765a1.041 1.041 0 0 0-.445-.902 3.551 3.551 0 0 0-1.166-.493c-.473-.119-.98-.237-1.508-.348a10.66 10.66 0 0 1-1.507-.444 2.975 2.975 0 0 1-1.167-.764 1.964 1.964 0 0 1-.451-1.39 2.33 2.33 0 0 1 .931-1.979 4.479 4.479 0 0 1 2.743-.695 4.578 4.578 0 0 1 2.021.382c.473.22.88.56 1.181.987.263.385.428.828.479 1.292h-1.396a1.567 1.567 0 0 0-.597-1.028 2.612 2.612 0 0 0-1.695-.438c-1.486 0-2.229.463-2.229 1.39a.965.965 0 0 0 .451.86 3.6 3.6 0 0 0 1.16.48c.472.118.979.229 1.507.333a9.343 9.343 0 0 1 1.514.445c.446.167.845.441 1.16.798.317.392.478.887.452 1.39a2.4 2.4 0 0 1-1.042 2.083 4.862 4.862 0 0 1-2.785.743Z" fill="#000"></path>
</svg>
